<?xml version="1.0" encoding="utf-8"?>
<svg version="1.1" xmlns:xlink="http://www.w3.org/1999/xlink" width="32px" height="22px" xmlns="http://www.w3.org/2000/svg">
  <g transform="matrix(1 0 0 1 -119 -75 )">
    <path d="M 27.9341988928571 6.28352664285714  C 28.2193723928571 6.70268017857143  28.5046921071429 7.12194332142857  28.7898656071429 7.54109685714286  C 28.8015970714286 7.54690778571429  28.8132189285714 7.55268214285714  28.8249503928571 7.55849307142857  C 29.1625317857143 7.017091  29.5002959285714 6.47557928571429  29.8378773571429 5.93417721428571  C 30.3637471071429 5.14645071428572  30.9414034642857 4.52537696428571  31.2526347142857 3.4889505  C 31.85591025 1.48052935714286  30.4241221428571 -0.00417828571428507  28.5278626785714 0.0306141071428588  C 28.3940653928571 0.0537846785714302  28.2600853571429 0.0770648928571447  28.1262515357143 0.100418214285715  C 27.6705513571429 0.234982964285715  27.2053856071429 0.520193035714287  26.9384854285714 0.851524964285716  C 26.7205212142857 1.12218946428572  26.5014971428571 1.41302767857143  26.3620351071429 1.75974575  C 26.0059976428571 2.64589235714286  26.2806457142857 3.67182992857143  26.6589766428571 4.29231896428571  C 27.0840141785714 4.95593303571429  27.5091248214286 5.619876  27.9341988928571 6.28352664285714  Z M 27.5322953928571 2.35359225  C 27.72098575 1.74816046428571  28.1247165714286 1.62536371428571  28.7025556785714 1.39307317857143  C 30.5181201428571 1.36639410714286  30.5509025 3.93489267857143  28.8772121071429 4.18764932142857  C 28.0221301428571 4.31673210714286  27.2585609642857 3.23286810714286  27.5322953928571 2.35359225  Z M 8.59890135714286 17.0253910714286  C 9.65422242857143 15.5481389285714  10.6522748928571 14.3839819642857  11.2712655 12.4141540714286  C 12.6557987857143 8.00761485714286  9.85044139285714 4.39333389285714  5.54235885714286 4.46712157142857  C 5.20554492857143 4.59879914285714  4.70712171428571 4.55571064285714  4.37209857142857 4.65917421428571  C 3.36754082142857 4.96934564285714  2.41217482142857 5.56618896428571  1.82201953571428 6.30099592857143  C 1.30652903571428 6.94264546428571  0.840157249999998 7.57245389285714  0.511968321428569 8.41441560714286  C -0.256205714285717 10.3854860714286  0.30558939285714 12.4673294285714  1.15822275 13.8639231428571  C 2.14666342857143 15.4829031785714  3.15049028571428 17.0628514285714  4.23230767857143 18.5972625  C 4.80280089285714 19.4414535714286  5.37344028571428 20.2858639285714  5.94393346428571 21.1299818928571  C 5.96147585714285 21.1415671785714  5.97901825 21.1532986428571  5.99637789285714 21.1648473928571  C 6.35153825 20.5885798214286  6.70680821428571 20.0120198571429  7.06193203571428 19.4356792142857  C 7.57088064285714 18.6184595357143  8.04653532142857 17.7982796071429  8.59890135714286 17.0253910714286  Z M 3.13199764285714 9.63712032142857  C 3.41410125 8.73054410714285  4.08323385714286 8.02362228571428  4.93096992857143 7.68085125  C 5.1989665 7.57249042857143  5.52266017857143 7.60282414285714  5.82172142857143 7.48865242857143  C 7.81424478571429 7.4773595  9.50090921428571 9.49966839285714  8.66866892857143 11.6457242142857  C 8.25656889285714 12.7083546071429  7.46504157142857 13.4504708928571  6.188394 13.6544011785714  C 4.23797235714286 13.9659248214286  2.52356903571429 11.5909407857143  3.13199764285714 9.63712032142857  Z M 29.1118416071429 15.3562690357143  C 27.65048725 14.4015243571429  26.1889501785714 13.4464872857143  24.7277420357143 12.4917426071429  C 24.2270529285714 12.1483502857143  23.7262176428571 11.8048117857143  23.2256747142857 11.4614194642857  C 22.2360645357143 10.9200173928571  21.2460888571429 10.3783229642857  20.2564421428571 9.83695742857143  C 19.7252731428571 9.526786  19.10372425 9.26646421428572  18.6844245357143 8.84135360714286  C 18.67283925 8.83557925  18.6611443214286 8.82976832142857  18.6495590357143 8.82399396428572  C 20.6282312142857 8.41368471428572  22.6888775357143 8.38824825  24.7628633571429 8.03794860714286  C 25.8280885714286 7.91573660714286  26.8937888928571 7.79334189285714  27.9590506428571 7.67109332142857  L 27.9590506071429 7.65373364285714  C 27.7961256428571 7.43178582142857  27.3311060714286 6.80508389285714  27.1032011428571 6.69306839285714  C 26.8354238214286 6.71634860714286  26.5674637857143 6.73970192857143  26.2997961428571 6.76301867857143  C 25.3335027142857 6.82109132142857  24.3666976428571 6.87945632142857  23.4004042142857 6.93767510714286  C 22.6468488214286 7.05473403571429  21.8745450357143 6.95368253571429  21.0773895 7.07728332142857  C 18.8361296428571 7.28106742857143  16.59406575 7.48488810714286  14.3527693571429 7.68863567857143  C 15.3657328571429 8.46872392857143  16.3789887142857 9.24910453571429  17.3919522142857 10.02915625  C 18.4779359285714 10.75420525  19.6431893214286 11.3251735357143  20.6930283571429 12.0725890714286  C 22.0319879642857 13.11468025  23.3712765 14.1570637857143  24.7102726785714 15.1991184285714  C 24.7220041428571 15.2164780714286  24.7335894285714 15.2339839285714  24.7453209285714 15.2515263214286  C 21.5201887142857 15.4553104285714  18.2939601071429 15.6591311071429  15.0688278928571 15.8628786785714  C 14.4169452857143 15.8920428928571  13.7645876071429 15.9211340357143  13.112705 15.9502251785714  C 12.3178518928571 16.0738259642857  11.5803039642857 16.1061331785714  10.8420251071429 16.2471301785714  C 10.4869013214286 16.2995746071429  10.1317775 16.3518728928571  9.77661717857143 16.4042442142857  C 8.72294071428571 18.17989975  7.66886225 19.9560303928571  6.61518578571428 21.73153975  C 6.6036005 21.7488993928571  6.59201521428571 21.76640525  6.58024717857143 21.7839476428571  C 10.160357 20.9944303571429  13.8604495 20.4021553571429  17.4966584285714 19.6005776785714  C 19.46447625 19.251411  21.4326595357143 18.9019153571429  23.40040425 18.5525659285714  C 26.1888405357143 18.0751935714286  28.9782270714286 17.5976750714286  31.7667364642857 17.1203027142857  L 31.7667364642857 17.1029430714286  C 30.88172275 16.5207183928571  29.996636 15.9384937142857  29.1118416071429 15.3562690357143  Z " fill-rule="nonzero" fill="#000000" stroke="none" transform="matrix(1 0 0 1 119 75 )" />
  </g>
</svg>