<?xml version="1.0" encoding="utf-8"?>
<svg version="1.1" xmlns:xlink="http://www.w3.org/1999/xlink" width="64px" height="64px" xmlns="http://www.w3.org/2000/svg">
  <g transform="matrix(1 0 0 1 -54 -54 )">
    <path d="M 86 59  C 101.12 59  113 70.88  113 86  C 113 101.12  101.12 113  86 113  C 70.88 113  59 101.12  59 86  C 59 70.88  70.88 59  86 59  Z " fill-rule="nonzero" fill="#ffffff" stroke="none" />
    <path d="M 86 57  C 102.24 57  115 69.76  115 86  C 115 102.24  102.24 115  86 115  C 69.76 115  57 102.24  57 86  C 57 69.76  69.76 57  86 57  Z " stroke-width="6" stroke="#797979" fill="none" />
  </g>
</svg>