<?xml version="1.0" encoding="utf-8"?>
<svg version="1.1" xmlns:xlink="http://www.w3.org/1999/xlink" width="7px" height="22px" xmlns="http://www.w3.org/2000/svg">
  <g transform="matrix(1 0 0 1 -23 -5 )">
    <path d="M 2.641 20.878  C 2.442 21.104  2.166 21.219  1.889 21.219  C 1.64648275579826 21.2192292471132  1.41219574636864 21.1310605394675  1.23 20.971  C 0.815000000000001 20.607  0.773 19.975  1.137 19.56  C 3.144 17.271  5 14.652  5 11  C 5 7.348  3.144 4.728  1.137 2.441  C 0.773 2.025  0.815000000000001 1.394  1.23 1.029  C 1.643 0.665000000000001  2.275 0.706  2.641 1.121  C 4.796 3.58  7 6.675  7 11  C 7 15.325  4.796 18.421  2.641 20.878  Z " fill-rule="nonzero" fill="#000000" stroke="none" transform="matrix(1 0 0 1 23 5 )" />
  </g>
</svg>