<?xml version="1.0" encoding="utf-8"?>
<svg version="1.1" xmlns:xlink="http://www.w3.org/1999/xlink" width="22px" height="26px" xmlns="http://www.w3.org/2000/svg">
  <g transform="matrix(1 0 0 1 -3 -3 )">
    <path d="M 15 24  C 15 25.386  14.165 25.877  13.451 25.877  C 12.796 25.877  12.071 25.484  11.296 24.71  L 5.586 19  L 3 19  C 1.346 19  0 17.654  0 16  L 0 10  C 0 8.346  1.346 7  3 7  L 5.586 7  L 11.293 1.293  C 12.061 0.525  12.785 0.136  13.445 0.136  C 14.162 0.136  15 0.625  15 2  L 15 24  Z M 6 9  L 3 9  C 2.449 9  2 9.449  2 10  L 2 16  C 2 16.552  2.449 17  3 17  L 6 17  C 6.265 17  6.52 17.105  6.707 17.293  L 12.709 23.296  C 12.815 23.401  12.912 23.49  13 23.564  L 13 2.438  C 12.8984647554591 2.52335949743484  12.8007049895519 2.61311163746562  12.707 2.707  L 6.707 8.707  C 6.52 8.895  6.265 9  6 9  Z M 19.301 19.408  C 19.105 19.68  18.799 19.824  18.487 19.824  C 18.2777513002393 19.8240776886493  18.0737841482364 19.7583044046415  17.904 19.636  C 17.456 19.314  17.353 18.689  17.675 18.24  L 18.071 17.698  C 19.106 16.295  20 15.082  20 13  C 20 10.843  19.208 9.796  18.205 8.471  C 18.028 8.238  17.851 8.002  17.676 7.759  C 17.354 7.311  17.456 6.686  17.905 6.363  C 18.354 6.039  18.978 6.143  19.301 6.592  C 19.465 6.821  19.634 7.044  19.8 7.264  C 20.882 8.694  22 10.172  22 13  C 22 15.739  20.769 17.41  19.683 18.885  L 19.301 19.408  Z " fill-rule="nonzero" fill="#aaaaaa" stroke="none" transform="matrix(1 0 0 1 3 3 )" />
  </g>
</svg>