<?xml version="1.0" encoding="utf-8"?>
<svg version="1.1" xmlns:xlink="http://www.w3.org/1999/xlink" width="30px" height="7px" xmlns="http://www.w3.org/2000/svg">
  <g transform="matrix(1 0 0 1 -75 -130 )">
    <path d="M 0.0590625000000006 3.50003125  C 0.0590625000000006 1.5749375  1.52255859375 0.0139687500000001  3.327392578125 0.0139687500000001  C 5.132255859375 0.0139687500000001  6.59572265625 1.5749375  6.59572265625 3.50003125  C 6.59572265625 5.425125  5.13228515625 6.98609375  3.327392578125 6.98609375  C 1.522529296875 6.98609375  0.0590625000000006 5.425125  0.0590625000000006 3.50003125  Z M 11.731640625 3.50003125  C 11.731640625 1.5749375  13.195107421875 0.0139687500000001  14.999970703125 0.0139687500000001  C 16.804833984375 0.0139687500000001  18.26830078125 1.5749375  18.26830078125 3.50003125  C 18.26830078125 5.425125  16.80486328125 6.98609375  14.999970703125 6.98609375  C 13.195107421875 6.98609375  11.731640625 5.425125  11.731640625 3.50003125  Z M 23.404189453125 3.50003125  C 23.404189453125 1.5749375  24.867685546875 0.0139687500000001  26.67251953125 0.0139687500000001  C 28.4773828125 0.0139687500000001  29.940849609375 1.5749375  29.940849609375 3.50003125  C 29.940849609375 5.425125  28.477412109375 6.98609375  26.67251953125 6.98609375  C 24.867685546875 6.98609375  23.404189453125 5.425125  23.404189453125 3.50003125  Z " fill-rule="nonzero" fill="#000000" stroke="none" transform="matrix(1 0 0 1 75 130 )" />
  </g>
</svg>