<?xml version="1.0" encoding="utf-8"?>
<svg version="1.1" xmlns:xlink="http://www.w3.org/1999/xlink" width="26px" height="27px" xmlns="http://www.w3.org/2000/svg">
  <g transform="matrix(1 0 0 1 -77 -23 )">
    <path d="M 25.8189970597345 19.0525423633475  C 25.8190103118042 17.3386615628962  24.4254820828008 15.9473990471938  22.7020648871681 15.9406779565678  C 22.6979744511049 15.9406620044283  22.6938839875204 15.9406540283356  22.689793520004 15.9406540283356  C 20.9615821258432 15.9406540283356  19.560589980181 17.3338831797096  19.560589980181 19.0525184351152  C 19.560589980181 20.7711536905209  20.9615821258432 22.1643828418949  22.689793520004 22.1643828418949  C 24.4180049141648 22.1643828418949  25.818997059827 20.7711536905209  25.818997059827 19.0525184351152  Z M 9.76802360840708 3.20033897351695  C 9.76801035627537 4.91421976285129  11.1615385678206 6.30548227396158  12.8849557522124 6.31220338029661  C 12.893128662179 6.3122668182895  12.9013017899763 6.31229853764826  12.9094749488927 6.31229853764826  C 14.6444636479332 6.31229853764826  16.0509498847334 4.9136057382749  16.0509498847334 3.18823073150419  C 16.0509498847334 1.46285572473348  14.6444636479332 0.064162925360121  12.9094749488927 0.064162925360121  C 11.1744862498522 0.064162925360121  9.76800001305201 1.46285572473348  9.76800001305201 3.18823073150419  C 9.76800001305201 3.19226682354332  9.76800787818513 3.19630291179257  9.76802360840708 3.20033897351695  Z M 17.4253687411504 5.23830509427966  C 20.8438738561298 6.89871605210167  23.0890071865118 10.2711099248179  23.2910914358407 14.0491525423729  C 23.9725716160506 14.1323969842879  24.628910205141 14.3568931339173  25.2176991150442 14.7081355932203  L 25.2176991150443 14.5738983146186  C 25.2080938498015 9.70501428132198  22.3255079349413 5.29520746974001  17.8548672566372 3.31016948199152  C 17.8452991056993 3.97526939035098  17.6991422215819 4.63140738172089  17.4253687411504 5.23830509427966  Z M 6.23386431637168 19.0159321938559  C 6.22689338371428 17.3089647070422  4.83345064482036 15.9288593712209  3.11695787634434 15.9288593712209  C 1.39552378706326 15.9288593712209  2.57325390294401E-05 17.3166248745956  2.57325390294401E-05 19.0285203786362  C 2.57325390294401E-05 20.721373199821  1.36577263371341 22.1011235356913  3.06784661725664 22.1277966006356  C 3.08011747538447 22.1279401737123  3.09238907663174 22.1280119621137  3.10466078404241 22.1280119621137  C 4.8328721782032 22.1280119621137  6.23386432386542 20.7347828107397  6.23386432386542 19.016147555334  Z M 0.613569311946903 14.7203389925847  C 1.18071703423784 14.3682032815685  1.81640381915887 14.1394595831143  2.47882006858407 14.0491525423729  C 2.67212529277169 10.2789904319817  4.89587152274063 6.90586855903415  8.29545723672566 5.22610169491526  C 8.02065240630952 4.62384868764966  7.87440778626799 3.97147213770098  7.86595869247788 3.31016948199153  C 3.39531801417378 5.29520746974001  0.512732099313525 9.70501428132198  0.503126834070797 14.5738983146186  C 0.530572297437222 14.6290505065905  0.568012924688281 14.6786947281215  0.613569311946903 14.7203389925847  Z M 12.8849557522124 25.0077966197034  L 12.8849557522124 25.0322033898305  C 10.5436684125504 25.0312158830955  8.27212992898222 24.2395070822798  6.44247787610619 22.7867796514831  C 5.93020010079742 23.2422639537427  5.32850497277453 23.5871526462111  4.6753982300885 23.799661026483  C 9.34239916969335 27.977086326073  16.4275123347314 27.977086326073  21.0945132743363 23.7996610264831  C 20.4414065316502 23.5871526462111  19.8397114036274 23.2422639537427  19.3274336283186 22.7867796514831  C 17.4945283456966 24.2307501027843  15.2233006688256 25.0137462272616  12.8849557522124 25.0077966197034  Z " fill-rule="nonzero" fill="#000000" stroke="none" transform="matrix(1 0 0 1 77 23 )" />
  </g>
</svg>