<?xml version="1.0" encoding="utf-8"?>
<svg version="1.1" xmlns:xlink="http://www.w3.org/1999/xlink" width="12px" height="12px" xmlns="http://www.w3.org/2000/svg">
  <defs>
    <mask fill="white" id="clip1">
      <path d="M 1.81112873605659 1.66724440320261  C 2.81388826810214 0.669498668817288  4.20271021998523 0.0728567472501846  5.61660116016946 0.0126911753274515  C 7.42156831785145 -0.0976123731975592  9.28137388744219 0.61936069221501  10.4947129212173 1.97809985813673  C 12.1191833631311 3.73794283687668  12.3999560321039 6.53031477126977  11.2668377608924 8.62106839558475  C 10.3793955750321 10.2505526351588  8.68473196587508 11.3836709063702  6.85970961755218 11.6594297776828  C 5.26532196159975 11.9101196606942  3.57097171479653 11.4689054665941  2.30248090675891 10.4661459345486  C 0.943741740837188 9.41324842590073  0.0763547456177862 7.74365380504489  0.0512857573166474 6.01890740992654  C 0.0011477807143698 4.40947836099343  0.652941476543978 2.79033507909363  1.81112873605659 1.66724440320261  Z M 6.70428189008511 1.06558868397528  C 5.2201977826577 0.824926396284348  3.62612348905904 1.34636135294804  2.56821218275098 2.424327849897  C 1.32980416067473 3.6527082766528  0.843465787632632 5.57267941816627  1.32980416067473 7.24728783668234  C 1.72088037817249 8.65115118154612  2.79884687512146 9.83440742935987  4.15257224338295 10.365869981344  C 6.11798092619224 11.1630638093202  8.59448360799098 10.5363391017918  9.87300201134906 8.82663409965409  C 9.40170503128765 8.85671688561545  8.91536665824556 8.89181346923705  8.46412486882506 8.72635814644953  C 7.72709661277158 8.4856958587586  7.21067545376812 7.87902634187104  6.70929568774535 7.32249480158576  C 5.92212945508959 6.47014919934704  5.39098026545921 5.3674270764507  4.40827592405457 4.70059198764041  C 3.93697894399316 4.38973653270628  3.27014385518287 4.3195433654631  2.79383307746123 4.66048160635858  C 2.19719115589413 5.11673719343931  2.12198419099071 6.02392120758677  2.4629224318862 6.65565971277547  C 2.71361231489759 7.14199808581756  3.31526803412492 7.41274315946986  3.84673058610906 7.27235682498348  C 4.55367605620117 7.09186010921528  5.07009721520463 6.53532856893  5.52133900462513 5.9938384216254  C 5.58651837420809 6.42001122274476  5.65671154145128 6.84618402386412  5.72189091103424 7.27235682498348  C 5.0650834175444 7.93417811613354  4.1425446480625 8.42051648917564  3.18992309261922 8.28013015468926  C 2.35261888336119 8.16982660616425  1.67074240157021 7.49797771969373  1.40501112557814 6.7158252846982  C 1.03399009872129 5.62281739476855  1.4701904951611 4.28946057950173  2.50303281316802 3.72791524155622  C 3.31025423646469 3.27667345213572  4.33808275681138 3.46719776322438  5.07511101286486 3.97860512456761  C 6.44387777410704 4.86604731042792  6.95497177309651 6.5704251525516  8.22847637879435 7.55312949395624  C 8.82010450270123 8.01941267635742  9.76771226048428 8.02944027167788  10.2841334194877 7.44783974309146  C 10.9359271153173 6.72083908235843  11.0211616755412 5.55795138753935  10.5649060884605 4.70560578530064  C 10.1688160733025 3.97860512456761  9.16605654125694 3.65772207431303  8.43905588052392 4.08890867309262  C 7.78726218469431 4.49001248591084  7.36108938357495 5.15684757472113  6.89480620117377 5.74847569862801  C 6.80455784328967 5.34235808814956  6.70428189008511 4.93624047767111  6.61904732986124 4.53012286719266  C 6.9900683567181 4.11397766139376  7.36610318123518 3.69281865793463  7.82235876831591 3.36692181001982  C 8.41398689222278 2.95077660422092  9.18109793423763 2.81540406739477  9.88302960666952 2.98085939018229  C 9.13597375529558 1.9530308698356  7.95773130514205 1.26112679272417  6.70428189008511 1.06558868397528  Z " fill-rule="evenodd" />
    </mask>
  </defs>
  <g transform="matrix(1 0 0 1 -61 -7 )">
    <path d="M 1.81112873605659 1.66724440320261  C 2.81388826810214 0.669498668817288  4.20271021998523 0.0728567472501846  5.61660116016946 0.0126911753274515  C 7.42156831785145 -0.0976123731975592  9.28137388744219 0.61936069221501  10.4947129212173 1.97809985813673  C 12.1191833631311 3.73794283687668  12.3999560321039 6.53031477126977  11.2668377608924 8.62106839558475  C 10.3793955750321 10.2505526351588  8.68473196587508 11.3836709063702  6.85970961755218 11.6594297776828  C 5.26532196159975 11.9101196606942  3.57097171479653 11.4689054665941  2.30248090675891 10.4661459345486  C 0.943741740837188 9.41324842590073  0.0763547456177862 7.74365380504489  0.0512857573166474 6.01890740992654  C 0.0011477807143698 4.40947836099343  0.652941476543978 2.79033507909363  1.81112873605659 1.66724440320261  Z M 6.70428189008511 1.06558868397528  C 5.2201977826577 0.824926396284348  3.62612348905904 1.34636135294804  2.56821218275098 2.424327849897  C 1.32980416067473 3.6527082766528  0.843465787632632 5.57267941816627  1.32980416067473 7.24728783668234  C 1.72088037817249 8.65115118154612  2.79884687512146 9.83440742935987  4.15257224338295 10.365869981344  C 6.11798092619224 11.1630638093202  8.59448360799098 10.5363391017918  9.87300201134906 8.82663409965409  C 9.40170503128765 8.85671688561545  8.91536665824556 8.89181346923705  8.46412486882506 8.72635814644953  C 7.72709661277158 8.4856958587586  7.21067545376812 7.87902634187104  6.70929568774535 7.32249480158576  C 5.92212945508959 6.47014919934704  5.39098026545921 5.3674270764507  4.40827592405457 4.70059198764041  C 3.93697894399316 4.38973653270628  3.27014385518287 4.3195433654631  2.79383307746123 4.66048160635858  C 2.19719115589413 5.11673719343931  2.12198419099071 6.02392120758677  2.4629224318862 6.65565971277547  C 2.71361231489759 7.14199808581756  3.31526803412492 7.41274315946986  3.84673058610906 7.27235682498348  C 4.55367605620117 7.09186010921528  5.07009721520463 6.53532856893  5.52133900462513 5.9938384216254  C 5.58651837420809 6.42001122274476  5.65671154145128 6.84618402386412  5.72189091103424 7.27235682498348  C 5.0650834175444 7.93417811613354  4.1425446480625 8.42051648917564  3.18992309261922 8.28013015468926  C 2.35261888336119 8.16982660616425  1.67074240157021 7.49797771969373  1.40501112557814 6.7158252846982  C 1.03399009872129 5.62281739476855  1.4701904951611 4.28946057950173  2.50303281316802 3.72791524155622  C 3.31025423646469 3.27667345213572  4.33808275681138 3.46719776322438  5.07511101286486 3.97860512456761  C 6.44387777410704 4.86604731042792  6.95497177309651 6.5704251525516  8.22847637879435 7.55312949395624  C 8.82010450270123 8.01941267635742  9.76771226048428 8.02944027167788  10.2841334194877 7.44783974309146  C 10.9359271153173 6.72083908235843  11.0211616755412 5.55795138753935  10.5649060884605 4.70560578530064  C 10.1688160733025 3.97860512456761  9.16605654125694 3.65772207431303  8.43905588052392 4.08890867309262  C 7.78726218469431 4.49001248591084  7.36108938357495 5.15684757472113  6.89480620117377 5.74847569862801  C 6.80455784328967 5.34235808814956  6.70428189008511 4.93624047767111  6.61904732986124 4.53012286719266  C 6.9900683567181 4.11397766139376  7.36610318123518 3.69281865793463  7.82235876831591 3.36692181001982  C 8.41398689222278 2.95077660422092  9.18109793423763 2.81540406739477  9.88302960666952 2.98085939018229  C 9.13597375529558 1.9530308698356  7.95773130514205 1.26112679272417  6.70428189008511 1.06558868397528  Z " fill-rule="nonzero" fill="#000000" stroke="none" transform="matrix(1 0 0 1 61 7 )" />
    <path d="M 1.81112873605659 1.66724440320261  C 2.81388826810214 0.669498668817288  4.20271021998523 0.0728567472501846  5.61660116016946 0.0126911753274515  C 7.42156831785145 -0.0976123731975592  9.28137388744219 0.61936069221501  10.4947129212173 1.97809985813673  C 12.1191833631311 3.73794283687668  12.3999560321039 6.53031477126977  11.2668377608924 8.62106839558475  C 10.3793955750321 10.2505526351588  8.68473196587508 11.3836709063702  6.85970961755218 11.6594297776828  C 5.26532196159975 11.9101196606942  3.57097171479653 11.4689054665941  2.30248090675891 10.4661459345486  C 0.943741740837188 9.41324842590073  0.0763547456177862 7.74365380504489  0.0512857573166474 6.01890740992654  C 0.0011477807143698 4.40947836099343  0.652941476543978 2.79033507909363  1.81112873605659 1.66724440320261  Z " stroke-width="0.0344698589140658" stroke="#ffffff" fill="none" transform="matrix(1 0 0 1 61 7 )" mask="url(#clip1)" />
    <path d="M 6.70428189008511 1.06558868397528  C 5.2201977826577 0.824926396284348  3.62612348905904 1.34636135294804  2.56821218275098 2.424327849897  C 1.32980416067473 3.6527082766528  0.843465787632632 5.57267941816627  1.32980416067473 7.24728783668234  C 1.72088037817249 8.65115118154612  2.79884687512146 9.83440742935987  4.15257224338295 10.365869981344  C 6.11798092619224 11.1630638093202  8.59448360799098 10.5363391017918  9.87300201134906 8.82663409965409  C 9.40170503128765 8.85671688561545  8.91536665824556 8.89181346923705  8.46412486882506 8.72635814644953  C 7.72709661277158 8.4856958587586  7.21067545376812 7.87902634187104  6.70929568774535 7.32249480158576  C 5.92212945508959 6.47014919934704  5.39098026545921 5.3674270764507  4.40827592405457 4.70059198764041  C 3.93697894399316 4.38973653270628  3.27014385518287 4.3195433654631  2.79383307746123 4.66048160635858  C 2.19719115589413 5.11673719343931  2.12198419099071 6.02392120758677  2.4629224318862 6.65565971277547  C 2.71361231489759 7.14199808581756  3.31526803412492 7.41274315946986  3.84673058610906 7.27235682498348  C 4.55367605620117 7.09186010921528  5.07009721520463 6.53532856893  5.52133900462513 5.9938384216254  C 5.58651837420809 6.42001122274476  5.65671154145128 6.84618402386412  5.72189091103424 7.27235682498348  C 5.0650834175444 7.93417811613354  4.1425446480625 8.42051648917564  3.18992309261922 8.28013015468926  C 2.35261888336119 8.16982660616425  1.67074240157021 7.49797771969373  1.40501112557814 6.7158252846982  C 1.03399009872129 5.62281739476855  1.4701904951611 4.28946057950173  2.50303281316802 3.72791524155622  C 3.31025423646469 3.27667345213572  4.33808275681138 3.46719776322438  5.07511101286486 3.97860512456761  C 6.44387777410704 4.86604731042792  6.95497177309651 6.5704251525516  8.22847637879435 7.55312949395624  C 8.82010450270123 8.01941267635742  9.76771226048428 8.02944027167788  10.2841334194877 7.44783974309146  C 10.9359271153173 6.72083908235843  11.0211616755412 5.55795138753935  10.5649060884605 4.70560578530064  C 10.1688160733025 3.97860512456761  9.16605654125694 3.65772207431303  8.43905588052392 4.08890867309262  C 7.78726218469431 4.49001248591084  7.36108938357495 5.15684757472113  6.89480620117377 5.74847569862801  C 6.80455784328967 5.34235808814956  6.70428189008511 4.93624047767111  6.61904732986124 4.53012286719266  C 6.9900683567181 4.11397766139376  7.36610318123518 3.69281865793463  7.82235876831591 3.36692181001982  C 8.41398689222278 2.95077660422092  9.18109793423763 2.81540406739477  9.88302960666952 2.98085939018229  C 9.13597375529558 1.9530308698356  7.95773130514205 1.26112679272417  6.70428189008511 1.06558868397528  Z " stroke-width="0.0344698589140658" stroke="#ffffff" fill="none" transform="matrix(1 0 0 1 61 7 )" mask="url(#clip1)" />
  </g>
</svg>