<?xml version="1.0" encoding="utf-8"?>
<svg version="1.1" xmlns:xlink="http://www.w3.org/1999/xlink" width="47px" height="64px" xmlns="http://www.w3.org/2000/svg">
  <g transform="matrix(1 0 0 1 -58 -30 )">
    <path d="M 8.90564024390244 29.0357142857143  C 4.20564024390244 26.3428571428571  0.967225609756098 21.3571428571429  0.967225609756098 15.15  C 0.967225609756098 6.97857142857143  8.08170731707317 0  16.8512195121951 0  C 25.6207317073171 0  32.7352134146341 6.97857142857143  32.7352134146341 15.15  C 32.7352134146341 21.35  29.5039634146341 26.3214285714286  24.7967987804878 29.0357142857143  L 24.7967987804878 23.9857142857143  C 27.1396341463415 21.9642857142857  28.6585365853659 18.9285714285714  28.766006097561 15.15  C 28.6585365853659 9.09285714285714  23.3423780487805 3.87857142857143  16.8512195121951 3.79285714285714  C 10.2382621951219 3.88571428571429  4.92210365853658 9.1  4.93643292682927 15.15  C 4.91493902439024 19  6.49832317073171 22.0785714285714  8.90564024390244 23.9857142857143  L 8.90564024390244 29.0357142857143  Z M 11 18.4857142857143  L 10.8974085365854 18.4857142857143  C 10.8974085365854 15.2  13.5698170731707 12.5357142857143  16.8512195121951 12.5357142857143  C 20.1397865853659 12.5357142857143  22.8050304878049 15.1928571428571  23 18.4714285714286  L 23 29.7  C 22.8050304878049 29.8571428571429  23.0271341463415 30.1285714285714  23.1990853658537 30.1642857142857  L 41.1966463414634 34.1571428571429  C 44.2487804878049 34.8357142857143  46.6346036585366 37.7928571428571  46 40.9  L 46 54.1  C 46.6346036585366 59.5714285714286  42.1925304878049 64  36.7044207317073 64  L 20.834756097561 64  C 18.0333841463415 64  14.5657012195122 62.3357142857143  12.8175304878049 60.1642857142857  L 1.64786585365854 47.5571428571429  C -0.214939024390244 45.2357142857143  -0.0214939024390252 41.7428571428571  2.09207317073171 39.6357142857143  L 2.34283536585366 39.3857142857143  C 4.51371951219512 37.2214285714286  8.02439024390244 37.2142857142857  10.1952743902439 39.3857142857143  L 11 40.0928571428571  L 11 18.4857142857143  Z M 15.9198170731707 57.6857142857143  C 16.9085365853659 58.9285714285714  19.2442073170732 60.0428571428571  20.834756097561 60  L 36.7044207317073 60  C 40.0001524390244 60.0428571428571  42.6653963414634 57.3857142857143  42 54.1071428571428  L 42 40.9  C 42.6653963414634 39.65  41.5763719512195 38.2928571428571  40.3368902439024 38.0214285714286  L 22.3393292682927 34.0357142857143  C 20.3618902439024 33.6  18.8358231707317 31.7214285714286  19 29.7071428571429  L 19 18.4714285714286  C 18.8358231707317 17.3785714285714  17.9474085365854 16.4928571428571  16.8512195121951 16.4928571428571  C 15.7550304878049 16.4928571428571  14.8666158536585 17.3857142857143  15 18.4785714285714  L 15 49.6428571428571  L 7.37957317073171 42.1785714285714  C 6.75625 41.5571428571429  5.76753048780488 41.5642857142857  5.14420731707317 42.1785714285714  L 4.89344512195122 42.4285714285714  C 4.21280487804878 43.1071428571429  4.14115853658537 44.3357142857143  4.74298780487805 45.0785714285714  L 15.9198170731707 57.6857142857143  Z " fill-rule="nonzero" fill="#666666" stroke="none" transform="matrix(1 0 0 1 58 30 )" />
  </g>
</svg>