<?xml version="1.0" encoding="utf-8"?>
<svg version="1.1" xmlns:xlink="http://www.w3.org/1999/xlink" width="57px" height="54px" xmlns="http://www.w3.org/2000/svg">
  <g transform="matrix(1 0 0 1 -273 -38 )">
    <path d="M 15.7292857142857 17.3984693877551  C 14.8064285714286 16.4686224489796  13.7003571428571 15.9933673469388  12.4110714285714 15.9933673469388  C 11.0810714285714 15.9933673469388  9.96142857142857 16.4617346938776  9.05892857142857 17.3984693877551  C 8.15642857142857 18.3352040816327  7.70857142857143 19.4785714285714  7.70857142857143 20.8354591836735  C 7.70857142857143 22.1441326530612  8.15642857142857 23.2668367346939  9.05892857142857 24.2035714285714  C 9.96142857142857 25.140306122449  11.0810714285714 25.6086734693878  12.4110714285714 25.6086734693878  C 13.7003571428571 25.6086734693878  14.8064285714286 25.140306122449  15.7292857142857 24.2035714285714  C 16.6521428571429 23.2668367346939  17.1135714285714 22.1441326530612  17.1135714285714 20.8354591836735  C 17.1135714285714 19.4854591836735  16.6521428571429 18.3352040816327  15.7292857142857 17.3984693877551  Z M 43.2996428571429 9.87704081632653  C 42.56 8.89897959183673  41.3453571428571 8.40994897959184  39.6692857142857 9  L 3.90178571428571 9  C 2.78214285714286 8.40994897959184  1.87964285714286 8.81632653061224  1.19428571428571 9.62219387755102  C 0.508928571428571 10.4280612244898  0.162857142857142 11.468112244898  1 12.7285714285714  L 1 49.4954081632653  C 0.162857142857142 50.6732142857143  0.569999999999999 51.6994897959184  1.38428571428571 52.5673469387755  C 2.19857142857143 53.4420918367347  3.12142857142857 53.8760204081633  4.15285714285714 53  L 40.1782142857143 53  C 41.3792857142857 53.8760204081633  42.3903571428571 53.4489795918367  43.2046428571429 52.6017857142857  C 44.0189285714286 51.7545918367347  44.4260714285714 50.8247448979592  44 49.8191326530612  L 44 13.7066326530612  C 44.4260714285714 12.1362244897959  44.0528571428571 10.8619897959184  43.2996428571429 9.87704081632653  Z M 40.3682142857143 24.3688775510204  L 40.375 24.3688775510204  C 37.9660714285714 24.4584183673469  35.8964285714286 24.8165816326531  34.1592857142857 25.4502551020408  C 32.4221428571429 26.0839285714286  30.875 26.8553571428571  29.5178571428571 27.7714285714286  C 28.1675 28.6875  26.9325 29.6586734693878  25.8128571428571 30.6849489795918  C 24.6932142857143 31.7112244897959  23.56 32.6686224489796  22.3996428571429 33.5640306122449  C 21.2392857142857 34.4594387755102  19.9839285714286 35.1964285714286  18.6267857142857 35.7887755102041  C 17.2764285714286 36.3811224489796  15.6953571428571 36.6704081632653  13.8903571428571 36.6704081632653  C 12.6892857142857 36.6704081632653  11.5696428571429 36.5051020408163  10.5382142857143 36.1813775510204  C 9.50678571428571 35.8576530612245  8.57035714285714 35.4650510204082  7.73571428571428 35.0035714285714  C 6.90107142857142 34.5489795918367  6.16821428571428 34.0461734693877  5.54392857142857 33.5020408163265  C 4.91964285714285 32.9579081632653  4.43785714285714 32.4895408163265  4 32.0969387755102  L 4 14.5538265306122  C 4.09178571428571 14.1612244897959  4.20035714285714 13.8375  4.41071428571428 13.5757653061224  C 4.62785714285714 13.3140306122449  4.88571428571428 13.1073979591837  5.18428571428571 12.9558673469388  C 5.48285714285714 12.8043367346939  5.78821428571428 12.6941326530612  6.08678571428571 12.6252551020408  C 6.38535714285714 12.5632653061225  6.62285714285714 12.5288265306122  6.7925 13  L 37.5317857142857 13  C 38.5225 12.5288265306122  39.2417857142857 12.8043367346939  39.6896428571428 13.3484693877551  C 40.1375 13.8926020408163  40.3682142857143 14.5400510204082  40.3682142857143 15.2770408163265  L 40.3682142857143 24.3688775510204  Z M 56 6.29540816326532  C 56.4910714285714 4.74566326530614  55.9414285714286 3.34744897959185  54.8421428571429 2.12831632653061  C 53.7496428571429 0.909183673469391  52.2975 0.296173469387758  50.4925 1  L 19.8889285714286 1  C 18.8982142857143 0.296173469387758  18.05 0.647448979591839  17.3442857142857 1.34311224489796  C 16.6385714285714 2.03877551020408  16.2789285714286 2.89285714285715  16.2789285714286 3.89158163265306  L 16.2789285714286 5  L 41.0875 5  C 43.7542857142857 4.47704081632653  45.6407142857143 4.97984693877551  46.7603571428571 5.97857142857143  C 47.88 6.98418367346939  48.4364285714286 8.70612244897959  48.4364285714286 11.144387755102  L 48.4364285714286 16.6408163265306  L 51.205 16.6408163265306  C 51.68 16.6408163265306  52.0871428571429 16.8130102040816  52.4264285714286 17.1642857142857  C 52.7725 17.5155612244898  52.9421428571429 17.9288265306123  52.9421428571429 18.4040816326531  C 52.9421428571429 18.9275510204082  52.7725 19.3614795918367  52.4264285714286 19.7127551020408  C 52.0803571428571 20.0640306122449  51.6732142857143 20.2362244897959  51.205 20.2362244897959  L 48.4364285714286 20.2362244897959  L 48.4364285714286 24.8785714285714  L 51.205 24.8785714285714  C 51.68 24.8785714285714  52.0871428571429 25.0645408163265  52.4264285714286 25.4364795918367  C 52.7725 25.808418367347  52.9421428571429 26.2354591836735  52.9421428571429 26.7107142857143  C 52.9421428571429 27.1928571428572  52.7725 27.6061224489796  52.4264285714286 27.9505102040816  C 52.0803571428571 28.3017857142857  51.6732142857143 28.4739795918368  51.205 28.4739795918368  L 48.4364285714286 28.4739795918368  L 48.4364285714286 33.577806122449  L 51.205 33.577806122449  C 51.68 33.577806122449  52.0871428571429 33.75  52.4264285714286 34.1012755102041  C 52.7725 34.4525510204082  52.9421428571429 34.8658163265306  52.9421428571429 35.3410714285714  C 52.9421428571429 35.8645408163266  52.7725 36.2984693877551  52.4264285714286 36.6497448979592  C 52.0803571428571 37.0010204081633  51.6732142857143 37.1732142857143  51.205 37.1732142857143  L 48.4364285714286 37.1732142857143  L 48.4364285714286 45.0872448979592  L 52.8810714285714 45.0872448979592  C 53.8717857142857 45.0872448979592  54.72 44.7359693877551  55.4257142857143 44.040306122449  C 56.1314285714286 43.3446428571429  56.4910714285714 42.4905612244898  56 41.4918367346939  L 56 6.29540816326532  Z " fill-rule="nonzero" fill="#666666" stroke="none" transform="matrix(1 0 0 1 273 38 )" />
  </g>
</svg>