<?xml version="1.0" encoding="utf-8"?>
<svg version="1.1" xmlns:xlink="http://www.w3.org/1999/xlink" width="18px" height="18px" xmlns="http://www.w3.org/2000/svg">
  <defs>
    <mask fill="white" id="clip2">
      <path d="M 9.25272962372709 0.00701912083283298  C 15.198455012831 0.00701912083283298  17.9560128882789 2.95008763088218  17.9560128882789 9.08544687988928  C 17.9560128882789 15.2293631152967  15.2067359674119 17.9847127361897  9.26101057830802 17.9847127361897  C 3.31528518920409 17.9847127361897  0.0613875985619955 15.2293631152967  0.0613875985619955 9.08544687988928  C 0.0613875985619955 2.94153064448189  3.30700423462317 0.00701912083283298  9.25272962372709 0.00701912083283298  Z " fill-rule="evenodd" />
    </mask>
  </defs>
  <g transform="matrix(1 0 0 1 -398 -29 )">
    <path d="M 9.25272962372709 0.00701912083283298  C 15.198455012831 0.00701912083283298  17.9560128882789 2.95008763088218  17.9560128882789 9.08544687988928  C 17.9560128882789 15.2293631152967  15.2067359674119 17.9847127361897  9.26101057830802 17.9847127361897  C 3.31528518920409 17.9847127361897  0.0613875985619955 15.2293631152967  0.0613875985619955 9.08544687988928  C 0.0613875985619955 2.94153064448189  3.30700423462317 0.00701912083283298  9.25272962372709 0.00701912083283298  Z " fill-rule="nonzero" fill="#000000" stroke="none" transform="matrix(1 0 0 1 398 29 )" />
    <path d="M 9.25272962372709 0.00701912083283298  C 15.198455012831 0.00701912083283298  17.9560128882789 2.95008763088218  17.9560128882789 9.08544687988928  C 17.9560128882789 15.2293631152967  15.2067359674119 17.9847127361897  9.26101057830802 17.9847127361897  C 3.31528518920409 17.9847127361897  0.0613875985619955 15.2293631152967  0.0613875985619955 9.08544687988928  C 0.0613875985619955 2.94153064448189  3.30700423462317 0.00701912083283298  9.25272962372709 0.00701912083283298  Z " stroke-width="0.187184077506318" stroke="#ffffff" fill="none" transform="matrix(1 0 0 1 398 29 )" mask="url(#clip2)" />
  </g>
</svg>