<?xml version="1.0" encoding="utf-8"?>
<svg version="1.1" xmlns:xlink="http://www.w3.org/1999/xlink" width="20px" height="20px" xmlns="http://www.w3.org/2000/svg">
  <defs>
    <mask fill="white" id="clip3">
      <path d="M 3.02040960651127 2.85847414835936  C 4.69122982414089 1.16048525154991  7.00531582555791 0.145104956472902  9.36117233241567 0.042713666213035  C 12.368648724149 -0.145003699263387  15.4674980965339 1.07515917633336  17.4891905598658 3.38749581470201  C 20.1959193124258 6.3824410548031  20.6637489733621 11.1345701563951  18.7757221274406 14.6926674929255  C 17.2970462348384 17.4657649374635  14.4733600670443 19.3941342373577  11.4324672709584 19.8634276510488  C 8.7758631249273 20.2900580271315  5.95269908845125 19.5391885652258  3.83911151314978 17.8326670608947  C 1.57515011826164 16.0408194813471  0.129890630012021 13.1994611766358  0.0881201245712808 10.2642441891863  C 0.00457911368979979 7.52527717473484  1.09061225514905 4.7697782332102  3.02040960651127 2.85847414835936  Z M 11.1734901372258 1.8345612457607  C 8.70067621513397 1.42499608472123  6.04459420042088 2.31238726697341  4.28187887082163 4.14689788412935  C 2.21841590204905 6.23738672693496  1.40806809649868 9.50484211975893  2.21841590204905 12.3547330319919  C 2.8700357869246 14.7438631380554  4.66616752087644 16.7575585131661  6.92177481467643 17.6620149104616  C 10.1965824412305 19.0186995064049  14.3229862474576 17.9521235661979  16.4532820249354 15.0425044013134  C 15.6679965226495 15.0937000464433  14.8576487170991 15.1534282990949  14.1057796191658 14.8718522508803  C 12.877726759208 14.4622870898408  12.0172543471288 13.4298415797205  11.1818442383139 12.4827221448167  C 9.8702503674747 11.0321788661353  8.98523778344901 9.15553849934115  7.34783397017198 8.02070169896097  C 6.56254846788606 7.49168003261832  5.45145302316236 7.37222352731515  4.65781341978829 7.95244083878772  C 3.66367539029867 8.72890812325838  3.53836387397644 10.2727767967079  4.10644274797052 11.3478853444365  C 4.52414780237792 12.1755482740371  5.52663993295569 12.6363090802065  6.41217464829939 12.3973960696002  C 7.59010290172828 12.0902221988206  8.45057531380753 11.1431027639168  9.20244441174086 10.221581151578  C 9.31104772588678 10.9468527909187  9.42800514112086 11.6721244302594  9.53660845526678 12.3973960696002  C 8.44222121271938 13.5237002624587  6.90506661250013 14.3513631920593  5.31778740575199 14.1124501814529  C 3.92265252403126 13.9247328159765  2.78649477604312 12.7813634080747  2.34372741837127 11.4502766346964  C 1.72552393784831 9.59016819497548  2.45233073251719 7.32102788218521  4.1732755566757 6.36537583975979  C 5.51828583186755 5.59744116281079  7.23087655493791 5.9216802486337  8.45892941489568 6.79200621584257  C 10.7395990119601 8.3022777471756  11.5911951916332 11.2028310165684  13.7131368680228 12.8752220908129  C 14.6989207964243 13.6687545903268  16.2778459020843 13.6858198053701  17.1383183141635 12.6960373328581  C 18.2243514556228 11.458809242218  18.3663711741213 9.47977758516407  17.6061479750998 8.02923430648262  C 16.9461739891361 6.79200621584257  15.2753537715065 6.24591933445662  14.064009113725 6.97972358131899  C 12.9779759722658 7.66233218305144  12.2678773797732 8.79716898343162  11.4909459785754 9.80401667098698  C 11.3405721589888 9.11287546173288  11.1734901372258 8.42173425247878  11.0314704187273 7.73059304322468  C 11.6496738992502 7.02238661892727  12.2762314808614 6.30564758710821  13.0364546798828 5.7510280982006  C 14.0222386082843 5.04282167390319  15.300416074771 4.81244127081849  16.4699902271117 5.09401731903312  C 15.2252291649776 3.34483277709373  13.2620154092628 2.16733293910527  11.1734901372258 1.8345612457607  Z " fill-rule="evenodd" />
    </mask>
  </defs>
  <g transform="matrix(1 0 0 1 -397 -28 )">
    <path d="M 3.02040960651127 2.85847414835936  C 4.69122982414089 1.16048525154991  7.00531582555791 0.145104956472902  9.36117233241567 0.042713666213035  C 12.368648724149 -0.145003699263387  15.4674980965339 1.07515917633336  17.4891905598658 3.38749581470201  C 20.1959193124258 6.3824410548031  20.6637489733621 11.1345701563951  18.7757221274406 14.6926674929255  C 17.2970462348384 17.4657649374635  14.4733600670443 19.3941342373577  11.4324672709584 19.8634276510488  C 8.7758631249273 20.2900580271315  5.95269908845125 19.5391885652258  3.83911151314978 17.8326670608947  C 1.57515011826164 16.0408194813471  0.129890630012021 13.1994611766358  0.0881201245712808 10.2642441891863  C 0.00457911368979979 7.52527717473484  1.09061225514905 4.7697782332102  3.02040960651127 2.85847414835936  Z M 11.1734901372258 1.8345612457607  C 8.70067621513397 1.42499608472123  6.04459420042088 2.31238726697341  4.28187887082163 4.14689788412935  C 2.21841590204905 6.23738672693496  1.40806809649868 9.50484211975893  2.21841590204905 12.3547330319919  C 2.8700357869246 14.7438631380554  4.66616752087644 16.7575585131661  6.92177481467643 17.6620149104616  C 10.1965824412305 19.0186995064049  14.3229862474576 17.9521235661979  16.4532820249354 15.0425044013134  C 15.6679965226495 15.0937000464433  14.8576487170991 15.1534282990949  14.1057796191658 14.8718522508803  C 12.877726759208 14.4622870898408  12.0172543471288 13.4298415797205  11.1818442383139 12.4827221448167  C 9.8702503674747 11.0321788661353  8.98523778344901 9.15553849934115  7.34783397017198 8.02070169896097  C 6.56254846788606 7.49168003261832  5.45145302316236 7.37222352731515  4.65781341978829 7.95244083878772  C 3.66367539029867 8.72890812325838  3.53836387397644 10.2727767967079  4.10644274797052 11.3478853444365  C 4.52414780237792 12.1755482740371  5.52663993295569 12.6363090802065  6.41217464829939 12.3973960696002  C 7.59010290172828 12.0902221988206  8.45057531380753 11.1431027639168  9.20244441174086 10.221581151578  C 9.31104772588678 10.9468527909187  9.42800514112086 11.6721244302594  9.53660845526678 12.3973960696002  C 8.44222121271938 13.5237002624587  6.90506661250013 14.3513631920593  5.31778740575199 14.1124501814529  C 3.92265252403126 13.9247328159765  2.78649477604312 12.7813634080747  2.34372741837127 11.4502766346964  C 1.72552393784831 9.59016819497548  2.45233073251719 7.32102788218521  4.1732755566757 6.36537583975979  C 5.51828583186755 5.59744116281079  7.23087655493791 5.9216802486337  8.45892941489568 6.79200621584257  C 10.7395990119601 8.3022777471756  11.5911951916332 11.2028310165684  13.7131368680228 12.8752220908129  C 14.6989207964243 13.6687545903268  16.2778459020843 13.6858198053701  17.1383183141635 12.6960373328581  C 18.2243514556228 11.458809242218  18.3663711741213 9.47977758516407  17.6061479750998 8.02923430648262  C 16.9461739891361 6.79200621584257  15.2753537715065 6.24591933445662  14.064009113725 6.97972358131899  C 12.9779759722658 7.66233218305144  12.2678773797732 8.79716898343162  11.4909459785754 9.80401667098698  C 11.3405721589888 9.11287546173288  11.1734901372258 8.42173425247878  11.0314704187273 7.73059304322468  C 11.6496738992502 7.02238661892727  12.2762314808614 6.30564758710821  13.0364546798828 5.7510280982006  C 14.0222386082843 5.04282167390319  15.300416074771 4.81244127081849  16.4699902271117 5.09401731903312  C 15.2252291649776 3.34483277709373  13.2620154092628 2.16733293910527  11.1734901372258 1.8345612457607  Z " fill-rule="nonzero" fill="#f9f9f9" stroke="none" transform="matrix(1 0 0 1 397 28 )" />
    <path d="M 3.02040960651127 2.85847414835936  C 4.69122982414089 1.16048525154991  7.00531582555791 0.145104956472902  9.36117233241567 0.042713666213035  C 12.368648724149 -0.145003699263387  15.4674980965339 1.07515917633336  17.4891905598658 3.38749581470201  C 20.1959193124258 6.3824410548031  20.6637489733621 11.1345701563951  18.7757221274406 14.6926674929255  C 17.2970462348384 17.4657649374635  14.4733600670443 19.3941342373577  11.4324672709584 19.8634276510488  C 8.7758631249273 20.2900580271315  5.95269908845125 19.5391885652258  3.83911151314978 17.8326670608947  C 1.57515011826164 16.0408194813471  0.129890630012021 13.1994611766358  0.0881201245712808 10.2642441891863  C 0.00457911368979979 7.52527717473484  1.09061225514905 4.7697782332102  3.02040960651127 2.85847414835936  Z " stroke-width="0.187184077506318" stroke="#ffffff" fill="none" transform="matrix(1 0 0 1 397 28 )" mask="url(#clip3)" />
    <path d="M 11.1734901372258 1.8345612457607  C 8.70067621513397 1.42499608472123  6.04459420042088 2.31238726697341  4.28187887082163 4.14689788412935  C 2.21841590204905 6.23738672693496  1.40806809649868 9.50484211975893  2.21841590204905 12.3547330319919  C 2.8700357869246 14.7438631380554  4.66616752087644 16.7575585131661  6.92177481467643 17.6620149104616  C 10.1965824412305 19.0186995064049  14.3229862474576 17.9521235661979  16.4532820249354 15.0425044013134  C 15.6679965226495 15.0937000464433  14.8576487170991 15.1534282990949  14.1057796191658 14.8718522508803  C 12.877726759208 14.4622870898408  12.0172543471288 13.4298415797205  11.1818442383139 12.4827221448167  C 9.8702503674747 11.0321788661353  8.98523778344901 9.15553849934115  7.34783397017198 8.02070169896097  C 6.56254846788606 7.49168003261832  5.45145302316236 7.37222352731515  4.65781341978829 7.95244083878772  C 3.66367539029867 8.72890812325838  3.53836387397644 10.2727767967079  4.10644274797052 11.3478853444365  C 4.52414780237792 12.1755482740371  5.52663993295569 12.6363090802065  6.41217464829939 12.3973960696002  C 7.59010290172828 12.0902221988206  8.45057531380753 11.1431027639168  9.20244441174086 10.221581151578  C 9.31104772588678 10.9468527909187  9.42800514112086 11.6721244302594  9.53660845526678 12.3973960696002  C 8.44222121271938 13.5237002624587  6.90506661250013 14.3513631920593  5.31778740575199 14.1124501814529  C 3.92265252403126 13.9247328159765  2.78649477604312 12.7813634080747  2.34372741837127 11.4502766346964  C 1.72552393784831 9.59016819497548  2.45233073251719 7.32102788218521  4.1732755566757 6.36537583975979  C 5.51828583186755 5.59744116281079  7.23087655493791 5.9216802486337  8.45892941489568 6.79200621584257  C 10.7395990119601 8.3022777471756  11.5911951916332 11.2028310165684  13.7131368680228 12.8752220908129  C 14.6989207964243 13.6687545903268  16.2778459020843 13.6858198053701  17.1383183141635 12.6960373328581  C 18.2243514556228 11.458809242218  18.3663711741213 9.47977758516407  17.6061479750998 8.02923430648262  C 16.9461739891361 6.79200621584257  15.2753537715065 6.24591933445662  14.064009113725 6.97972358131899  C 12.9779759722658 7.66233218305144  12.2678773797732 8.79716898343162  11.4909459785754 9.80401667098698  C 11.3405721589888 9.11287546173288  11.1734901372258 8.42173425247878  11.0314704187273 7.73059304322468  C 11.6496738992502 7.02238661892727  12.2762314808614 6.30564758710821  13.0364546798828 5.7510280982006  C 14.0222386082843 5.04282167390319  15.300416074771 4.81244127081849  16.4699902271117 5.09401731903312  C 15.2252291649776 3.34483277709373  13.2620154092628 2.16733293910527  11.1734901372258 1.8345612457607  Z " stroke-width="0.187184077506318" stroke="#ffffff" fill="none" transform="matrix(1 0 0 1 397 28 )" mask="url(#clip3)" />
  </g>
</svg>